<svg xmlns="http://www.w3.org/2000/svg" viewBox="0 0 1800 420">
<style>.s{fill:none;stroke:#0B2F67;stroke-width:18;stroke-linecap:round;stroke-linejoin:round} .g{fill:none;stroke:#0A815B;stroke-width:18;stroke-linecap:round;stroke-linejoin:round}</style>
<g transform="translate(60,60)">
  <rect class="s" x="10" y="70" width="250" height="230" rx="24"/><path class="s" d="M10 130h250M60 30v80M210 30v80"/>
  <g class="s"><path d="M65 175h20M120 175h20M175 175h20M65 225h20M120 225h20M175 225h20"/></g>
</g>
<path class="g" d="M360 210h120M450 170l40 40-40 40"/>
<g transform="translate(520,70)">
  <rect class="s" x="0" y="70" width="250" height="190" rx="28"/><path class="s" d="M55 70l24-58h92l24 58"/><circle class="s" cx="125" cy="165" r="54"/>
</g>
<path class="g" d="M860 210h120M950 170l40 40-40 40"/>
<g transform="translate(1020,55)">
  <rect class="s" x="20" y="40" width="210" height="260" rx="20"/><path class="s" d="M80 40V10h90v30"/><path class="s" d="M68 120l22 22 38-46M68 190l22 22 38-46"/>
  <circle class="s" cx="220" cy="250" r="58"/><path class="s" d="M194 250l18 18 34-40"/>
</g>
<path class="g" d="M1360 210h120M1450 170l40 40-40 40"/>
<g transform="translate(1515,65)">
  <path class="s" d="M20 150L125 50l105 100v150H20z"/><path class="s" d="M95 300v-90h60v90"/>
</g>
</svg>